<?xml version="1.0" standalone="no"?>
<svg xmlns="http://www.w3.org/2000/svg" xmlns:xlink="http://www.w3.org/1999/xlink" width="1151pt" height="1250pt" viewBox="0.00 0.00 1151.07 1250.00">
<g id="graph0" class="graph" transform="translate(4,1246) scale(1)" data-name="G">

<polygon fill="#2e3e56" stroke="transparent" points="-4,4 -4,-1246 1147.07,-1246 1147.07,4 -4,4" style=""/>
<g id="clust1" class="cluster" data-name="clusterMarketplace">

<path fill="#445773" stroke="#445773" d="M26.77,-348C26.77,-348 1123.07,-348 1123.07,-348 1129.07,-348 1135.07,-354 1135.07,-360 1135.07,-360 1135.07,-1085 1135.07,-1085 1135.07,-1091 1129.07,-1097 1123.07,-1097 1123.07,-1097 26.77,-1097 26.77,-1097 20.77,-1097 14.77,-1091 14.77,-1085 14.77,-1085 14.77,-360 14.77,-360 14.77,-354 20.77,-348 26.77,-348" style=""/>
<text text-anchor="middle" x="574.92" y="-1080.4" font-family="Times,serif" font-size="14.00" fill="#f0f0f0" style="">Marketplace</text>
</g>
<g id="clust2" class="cluster" data-name="clusterReceiptUtil">

<path fill="#3b4b63" stroke="#e8726d" stroke-dasharray="5,2" d="M240.18,-263C240.18,-263 359.36,-263 359.36,-263 365.36,-263 371.36,-269 371.36,-275 371.36,-275 371.36,-328 371.36,-328 371.36,-334 365.36,-340 359.36,-340 359.36,-340 240.18,-340 240.18,-340 234.18,-340 228.18,-334 228.18,-328 228.18,-328 228.18,-275 228.18,-275 228.18,-269 234.18,-263 240.18,-263" style=""/>
<text text-anchor="middle" x="299.77" y="-323.4" font-family="Times,serif" font-size="14.00" fill="#f0f0f0" style="">ReceiptUtil</text>
</g>
<g id="clust3" class="cluster" data-name="clusterReceiptUtil.Receipt">

<path fill="#3b4b63" stroke="#e8726d" stroke-dasharray="5,2" d="M249.03,-178C249.03,-178 351.51,-178 351.51,-178 357.51,-178 363.51,-184 363.51,-190 363.51,-190 363.51,-243 363.51,-243 363.51,-249 357.51,-255 351.51,-255 351.51,-255 249.03,-255 249.03,-255 243.03,-255 237.03,-249 237.03,-243 237.03,-243 237.03,-190 237.03,-190 237.03,-184 243.03,-178 249.03,-178" style=""/>
<text text-anchor="middle" x="300.27" y="-238.4" font-family="Times,serif" font-size="14.00" fill="#f0f0f0" style="">ReceiptUtil.Receipt</text>
</g>
<g id="clust4" class="cluster" data-name="clusterIGovernance">

<path fill="#3b4b63" stroke="#e8726d" stroke-dasharray="5,2" d="M261.63,-93C261.63,-93 337.91,-93 337.91,-93 343.91,-93 349.91,-99 349.91,-105 349.91,-105 349.91,-158 349.91,-158 349.91,-164 343.91,-170 337.91,-170 337.91,-170 261.63,-170 261.63,-170 255.63,-170 249.63,-164 249.63,-158 249.63,-158 249.63,-105 249.63,-105 249.63,-99 255.63,-93 261.63,-93" style=""/>
<text text-anchor="middle" x="299.77" y="-153.4" font-family="Times,serif" font-size="14.00" fill="#f0f0f0" style="">IGovernance</text>
</g>
<g id="clust5" class="cluster" data-name="clusterReceiptUtil.BulkReceipt">

<path fill="#3b4b63" stroke="#e8726d" stroke-dasharray="5,2" d="M235.03,-8C235.03,-8 364.51,-8 364.51,-8 370.51,-8 376.51,-14 376.51,-20 376.51,-20 376.51,-73 376.51,-73 376.51,-79 370.51,-85 364.51,-85 364.51,-85 235.03,-85 235.03,-85 229.03,-85 223.03,-79 223.03,-73 223.03,-73 223.03,-20 223.03,-20 223.03,-14 229.03,-8 235.03,-8" style=""/>
<text text-anchor="middle" x="299.77" y="-68.4" font-family="Times,serif" font-size="14.00" fill="#f0f0f0" style="">ReceiptUtil.BulkReceipt</text>
</g>
<g id="clust6" class="cluster" data-name="cluster_01">

<polygon fill="#2e3e56" stroke="black" points="8,-1105 8,-1234 334.77,-1234 334.77,-1105 8,-1105" style=""/>
<text text-anchor="middle" x="171.39" y="-1217.4" font-family="Times,serif" font-size="14.00" style="">Legend</text>
</g>
<!-- Marketplace.initialize -->
<g id="node1" class="node" pointer-events="visible" data-name="Marketplace.initialize">

<ellipse fill="#ffbdb9" stroke="#ffbdb9" stroke-width="3" cx="81" cy="-1028" rx="44.64" ry="18" style=""/>
<text text-anchor="middle" x="81" y="-1023.8" font-family="Times,serif" font-size="14.00" style="">initialize</text>
</g>
<!-- Marketplace._initialize -->
<g id="node10" class="node" pointer-events="visible" data-name="Marketplace._initialize">

<ellipse fill="#edad56" stroke="#edad56" stroke-width="3" cx="299.77" cy="-1028" rx="49.8" ry="18" style=""/>
<text text-anchor="middle" x="299.77" y="-1023.8" font-family="Times,serif" font-size="14.00" style="">_initialize</text>
</g>
<!-- Marketplace.initialize&#45;&gt;Marketplace._initialize -->
<g id="edge1" class="edge" data-name="Marketplace.initialize-&gt;Marketplace._initialize">

<path fill="none" stroke="#1bc6a6" stroke-width="2" d="M125.87,-1028C158.63,-1028 203.77,-1028 239.71,-1028" style=""/>
<polygon fill="#1bc6a6" stroke="#1bc6a6" stroke-width="2" points="240.06,-1031.5 250.06,-1028 240.06,-1024.5 240.06,-1031.5" style=""/>
</g>
<!-- Marketplace.redeem -->
<g id="node2" class="node" pointer-events="visible" data-name="Marketplace.redeem">

<ellipse fill="#ffbdb9" stroke="brown" stroke-width="3" cx="81" cy="-765" rx="39.4" ry="18" style=""/>
<text text-anchor="middle" x="81" y="-760.8" font-family="Times,serif" font-size="14.00" style="">redeem</text>
</g>
<!-- Marketplace._safeTransferFrom -->
<g id="node6" class="node" pointer-events="visible" data-name="Marketplace._safeTransferFrom">

<ellipse fill="#edad56" stroke="#edad56" stroke-width="3" cx="299.77" cy="-974" rx="85.09" ry="18" style=""/>
<text text-anchor="middle" x="299.77" y="-969.8" font-family="Times,serif" font-size="14.00" style="">_safeTransferFrom</text>
</g>
<!-- Marketplace.redeem&#45;&gt;Marketplace._safeTransferFrom -->
<g id="edge10" class="edge" data-name="Marketplace.redeem-&gt;Marketplace._safeTransferFrom">

<path fill="none" stroke="#1bc6a6" stroke-width="2" d="M86.54,-783C96.82,-819.9 125.51,-904.25 182,-947 191.33,-954.06 202.2,-959.33 213.48,-963.24" style=""/>
<polygon fill="#1bc6a6" stroke="#1bc6a6" stroke-width="2" points="212.44,-966.58 223.03,-966.22 214.53,-959.9 212.44,-966.58" style=""/>
</g>
<!-- Marketplace._pay -->
<g id="node8" class="node" pointer-events="visible" data-name="Marketplace._pay">

<ellipse fill="#edad56" stroke="#edad56" stroke-width="3" cx="560.05" cy="-560" rx="29.62" ry="18" style=""/>
<text text-anchor="middle" x="560.05" y="-555.8" font-family="Times,serif" font-size="14.00" style="">_pay</text>
</g>
<!-- Marketplace.redeem&#45;&gt;Marketplace._pay -->
<g id="edge7" class="edge" data-name="Marketplace.redeem-&gt;Marketplace._pay">

<path fill="none" stroke="#1bc6a6" stroke-width="2" d="M102.57,-780.08C121.94,-793.29 152.35,-811.51 182,-819 232.75,-831.83 377.8,-853.06 417.54,-819 496.78,-751.11 383.41,-664.26 453.54,-587 470.18,-568.67 497.41,-562.03 520.03,-559.91" style=""/>
<polygon fill="#1bc6a6" stroke="#1bc6a6" stroke-width="2" points="520.3,-563.4 530.05,-559.23 519.83,-556.42 520.3,-563.4" style=""/>
</g>
<!-- Marketplace._useNonce -->
<g id="node11" class="node" pointer-events="visible" data-name="Marketplace._useNonce">

<ellipse fill="#edad56" stroke="#edad56" stroke-width="3" cx="299.77" cy="-684" rx="53.88" ry="18" style=""/>
<text text-anchor="middle" x="299.77" y="-679.8" font-family="Times,serif" font-size="14.00" style="">_useNonce</text>
</g>
<!-- Marketplace.redeem&#45;&gt;Marketplace._useNonce -->
<g id="edge5" class="edge" data-name="Marketplace.redeem-&gt;Marketplace._useNonce">

<path fill="none" stroke="#1bc6a6" stroke-width="2" d="M104.6,-750.51C124.35,-738.42 154.13,-721.53 182,-711 200.9,-703.86 222.25,-698.25 241.49,-694.04" style=""/>
<polygon fill="#1bc6a6" stroke="#1bc6a6" stroke-width="2" points="242.27,-697.46 251.33,-691.97 240.82,-690.61 242.27,-697.46" style=""/>
</g>
<!-- Marketplace._hashTypedDataV4 -->
<g id="node13" class="node" pointer-events="visible" data-name="Marketplace._hashTypedDataV4">

<ellipse fill="#edad56" stroke="#edad56" stroke-width="3" cx="299.77" cy="-738" rx="88.04" ry="18" style=""/>
<text text-anchor="middle" x="299.77" y="-733.8" font-family="Times,serif" font-size="14.00" style="">_hashTypedDataV4</text>
</g>
<!-- Marketplace.redeem&#45;&gt;Marketplace._hashTypedDataV4 -->
<g id="edge3" class="edge" data-name="Marketplace.redeem-&gt;Marketplace._hashTypedDataV4">

<path fill="none" stroke="#1bc6a6" stroke-width="2" d="M119.26,-760.36C145.26,-757.12 181.04,-752.66 213.81,-748.58" style=""/>
<polygon fill="#1bc6a6" stroke="#1bc6a6" stroke-width="2" points="214.38,-752.04 223.87,-747.33 213.52,-745.09 214.38,-752.04" style=""/>
</g>
<!-- Marketplace.IERC20PermitUpgradeable -->
<g id="node14" class="node" pointer-events="visible" data-name="Marketplace.IERC20PermitUpgradeable">

<ellipse fill="#edad56" stroke="#edad56" stroke-width="3" cx="299.77" cy="-792" rx="117.54" ry="18" style=""/>
<text text-anchor="middle" x="299.77" y="-787.8" font-family="Times,serif" font-size="14.00" style="">IERC20PermitUpgradeable</text>
</g>
<!-- Marketplace.redeem&#45;&gt;Marketplace.IERC20PermitUpgradeable -->
<g id="edge6" class="edge" data-name="Marketplace.redeem-&gt;Marketplace.IERC20PermitUpgradeable">

<path fill="none" stroke="#1bc6a6" stroke-width="2" d="M119.26,-769.64C141.04,-772.35 169.68,-775.92 197.67,-779.41" style=""/>
<polygon fill="#1bc6a6" stroke="#1bc6a6" stroke-width="2" points="197.58,-782.92 207.93,-780.69 198.44,-775.98 197.58,-782.92" style=""/>
</g>
<!-- Marketplace.INFT -->
<g id="node15" class="node" pointer-events="visible" data-name="Marketplace.INFT">

<ellipse fill="#edad56" stroke="#edad56" stroke-width="3" cx="299.77" cy="-866" rx="32.49" ry="18" style=""/>
<text text-anchor="middle" x="299.77" y="-861.8" font-family="Times,serif" font-size="14.00" style="">INFT</text>
</g>
<!-- Marketplace.redeem&#45;&gt;Marketplace.INFT -->
<g id="edge9" class="edge" data-name="Marketplace.redeem-&gt;Marketplace.INFT">

<path fill="none" stroke="#1bc6a6" stroke-width="2" d="M100.73,-780.82C119.99,-796.36 151.4,-819.76 182,-834 206.4,-845.36 235.61,-853.36 258.71,-858.52" style=""/>
<polygon fill="#1bc6a6" stroke="#1bc6a6" stroke-width="2" points="258.01,-861.95 268.53,-860.63 259.48,-855.11 258.01,-861.95" style=""/>
</g>
<!-- Marketplace.ItemRedeemed -->
<g id="node16" class="node" pointer-events="visible" data-name="Marketplace.ItemRedeemed">

<ellipse fill="#edad56" stroke="#edad56" stroke-width="3" cx="299.77" cy="-920" rx="69.47" ry="18" style=""/>
<text text-anchor="middle" x="299.77" y="-915.8" font-family="Times,serif" font-size="14.00" style="">ItemRedeemed</text>
</g>
<!-- Marketplace.redeem&#45;&gt;Marketplace.ItemRedeemed -->
<g id="edge11" class="edge" data-name="Marketplace.redeem-&gt;Marketplace.ItemRedeemed">

<path fill="none" stroke="#1bc6a6" stroke-width="2" d="M90.66,-782.61C105.37,-810.6 138.01,-864.96 182,-893 194.95,-901.26 210.15,-907 225.21,-910.98" style=""/>
<polygon fill="#1bc6a6" stroke="#1bc6a6" stroke-width="2" points="224.53,-914.42 235.07,-913.36 226.17,-907.61 224.53,-914.42" style=""/>
</g>
<!-- ReceiptUtil.verifyReceipt -->
<g id="node36" class="node" pointer-events="visible" data-name="ReceiptUtil.verifyReceipt">

<ellipse fill="#edad56" stroke="#edad56" stroke-width="3" cx="299.77" cy="-289" rx="63.68" ry="18" style=""/>
<text text-anchor="middle" x="299.77" y="-284.8" font-family="Times,serif" font-size="14.00" style="">verifyReceipt</text>
</g>
<!-- Marketplace.redeem&#45;&gt;ReceiptUtil.verifyReceipt -->
<g id="edge2" class="edge" data-name="Marketplace.redeem-&gt;ReceiptUtil.verifyReceipt">

<path fill="none" stroke="white" stroke-width="2" d="M92.88,-747.69C107.54,-723.48 133.26,-677.66 146,-635 183.3,-510.13 105.56,-449.54 182,-344 196.03,-324.63 218.65,-311.86 240.26,-303.54" style=""/>
<polygon fill="white" stroke="white" stroke-width="2" points="241.53,-306.8 249.76,-300.13 239.17,-300.21 241.53,-306.8" style=""/>
</g>
<!-- ReceiptUtil.Receipt.hash -->
<g id="node37" class="node" pointer-events="visible" data-name="ReceiptUtil.Receipt.hash">

<ellipse fill="#edad56" stroke="#edad56" stroke-width="3" cx="299.77" cy="-204" rx="28.98" ry="18" style=""/>
<text text-anchor="middle" x="299.77" y="-199.8" font-family="Times,serif" font-size="14.00" style="">hash</text>
</g>
<!-- Marketplace.redeem&#45;&gt;ReceiptUtil.Receipt.hash -->
<g id="edge4" class="edge" data-name="Marketplace.redeem-&gt;ReceiptUtil.Receipt.hash">

<path fill="none" stroke="white" stroke-width="2" d="M93.05,-747.74C107.9,-723.58 133.85,-677.84 146,-635 168.91,-554.25 133.71,-327.65 182,-259 200.58,-232.59 235.24,-218.49 261.99,-211.2" style=""/>
<polygon fill="white" stroke="white" stroke-width="2" points="262.96,-214.57 271.8,-208.73 261.25,-207.78 262.96,-214.57" style=""/>
</g>
<!-- IGovernance.treasury -->
<g id="node38" class="node" pointer-events="visible" data-name="IGovernance.treasury">

<ellipse fill="#edad56" stroke="#edad56" stroke-width="3" cx="299.77" cy="-119" rx="42.28" ry="18" style=""/>
<text text-anchor="middle" x="299.77" y="-114.8" font-family="Times,serif" font-size="14.00" style="">treasury</text>
</g>
<!-- Marketplace.redeem&#45;&gt;IGovernance.treasury -->
<g id="edge8" class="edge" data-name="Marketplace.redeem-&gt;IGovernance.treasury">

<path fill="none" stroke="white" stroke-width="2" d="M93.16,-747.77C108.14,-723.65 134.22,-677.94 146,-635 173.18,-535.9 123.62,-258.56 182,-174 198.02,-150.8 226.49,-137.12 251.31,-129.21" style=""/>
<polygon fill="white" stroke="white" stroke-width="2" points="252.37,-132.54 260.96,-126.35 250.38,-125.83 252.37,-132.54" style=""/>
</g>
<!-- Marketplace.redeemBulk -->
<g id="node3" class="node" pointer-events="visible" data-name="Marketplace.redeemBulk">

<ellipse fill="#ffbdb9" stroke="brown" stroke-width="3" cx="81" cy="-608" rx="58.46" ry="18" style=""/>
<text text-anchor="middle" x="81" y="-603.8" font-family="Times,serif" font-size="14.00" style="">redeemBulk</text>
</g>
<!-- Marketplace._batchProcess -->
<g id="node7" class="node" pointer-events="visible" data-name="Marketplace._batchProcess">

<ellipse fill="#edad56" stroke="#edad56" stroke-width="3" cx="299.77" cy="-536" rx="66.06" ry="18" style=""/>
<text text-anchor="middle" x="299.77" y="-531.8" font-family="Times,serif" font-size="14.00" style="">_batchProcess</text>
</g>
<!-- Marketplace.redeemBulk&#45;&gt;Marketplace._batchProcess -->
<g id="edge17" class="edge" data-name="Marketplace.redeemBulk-&gt;Marketplace._batchProcess">

<path fill="none" stroke="#1bc6a6" stroke-width="2" d="M112.02,-592.63C131.56,-583.09 157.82,-571.15 182,-563 198.9,-557.31 217.56,-552.4 234.92,-548.39" style=""/>
<polygon fill="#1bc6a6" stroke="#1bc6a6" stroke-width="2" points="235.98,-551.74 244.97,-546.13 234.45,-544.91 235.98,-551.74" style=""/>
</g>
<!-- Marketplace.redeemBulk&#45;&gt;Marketplace._useNonce -->
<g id="edge15" class="edge" data-name="Marketplace.redeemBulk-&gt;Marketplace._useNonce">

<path fill="none" stroke="#1bc6a6" stroke-width="2" d="M113.05,-623.08C132.56,-632.19 158.4,-643.63 182,-652 202.42,-659.25 225.33,-665.85 245.41,-671.14" style=""/>
<polygon fill="#1bc6a6" stroke="#1bc6a6" stroke-width="2" points="244.76,-674.59 255.32,-673.71 246.52,-667.82 244.76,-674.59" style=""/>
</g>
<!-- Marketplace.redeemBulk&#45;&gt;Marketplace._hashTypedDataV4 -->
<g id="edge13" class="edge" data-name="Marketplace.redeemBulk-&gt;Marketplace._hashTypedDataV4">

<path fill="none" stroke="#1bc6a6" stroke-width="2" d="M94,-625.57C110.86,-648.84 143.8,-689.44 182,-711 192.65,-717.01 204.57,-721.68 216.61,-725.32" style=""/>
<polygon fill="#1bc6a6" stroke="#1bc6a6" stroke-width="2" points="215.7,-728.7 226.27,-728.02 217.58,-721.96 215.7,-728.7" style=""/>
</g>
<!-- Marketplace.redeemBulk&#45;&gt;Marketplace.IERC20PermitUpgradeable -->
<g id="edge16" class="edge" data-name="Marketplace.redeemBulk-&gt;Marketplace.IERC20PermitUpgradeable">

<path fill="none" stroke="#1bc6a6" stroke-width="2" d="M88.22,-626.07C100.58,-659.14 131.47,-729.27 182,-765 188.33,-769.48 195.29,-773.22 202.57,-776.35" style=""/>
<polygon fill="#1bc6a6" stroke="#1bc6a6" stroke-width="2" points="201.34,-779.63 211.93,-780 203.88,-773.11 201.34,-779.63" style=""/>
</g>
<!-- Marketplace.IERC1155Permit -->
<g id="node17" class="node" pointer-events="visible" data-name="Marketplace.IERC1155Permit">

<ellipse fill="#edad56" stroke="#edad56" stroke-width="3" cx="560.05" cy="-668" rx="78.2" ry="18" style=""/>
<text text-anchor="middle" x="560.05" y="-663.8" font-family="Times,serif" font-size="14.00" style="">IERC1155Permit</text>
</g>
<!-- Marketplace.redeemBulk&#45;&gt;Marketplace.IERC1155Permit -->
<g id="edge19" class="edge" data-name="Marketplace.redeemBulk-&gt;Marketplace.IERC1155Permit">

<path fill="none" stroke="#1bc6a6" stroke-width="2" d="M133.34,-616C148.96,-618.36 166.17,-620.87 182,-623 284.39,-636.79 402.72,-650.56 479.1,-659.16" style=""/>
<polygon fill="#1bc6a6" stroke="#1bc6a6" stroke-width="2" points="478.8,-662.65 489.13,-660.29 479.58,-655.7 478.8,-662.65" style=""/>
</g>
<!-- Marketplace.IERC1155 -->
<g id="node18" class="node" pointer-events="visible" data-name="Marketplace.IERC1155">

<ellipse fill="#edad56" stroke="#edad56" stroke-width="3" cx="560.05" cy="-614" rx="52.2" ry="18" style=""/>
<text text-anchor="middle" x="560.05" y="-609.8" font-family="Times,serif" font-size="14.00" style="">IERC1155</text>
</g>
<!-- Marketplace.redeemBulk&#45;&gt;Marketplace.IERC1155 -->
<g id="edge20" class="edge" data-name="Marketplace.redeemBulk-&gt;Marketplace.IERC1155">

<path fill="none" stroke="#1bc6a6" stroke-width="2" d="M136.17,-613.77C151.01,-615.11 167.11,-616.33 182,-617 293.18,-621.99 422.97,-619.03 497.63,-616.48" style=""/>
<polygon fill="#1bc6a6" stroke="#1bc6a6" stroke-width="2" points="497.92,-619.97 507.79,-616.12 497.67,-612.97 497.92,-619.97" style=""/>
</g>
<!-- Marketplace.BulkRedeemed -->
<g id="node19" class="node" pointer-events="visible" data-name="Marketplace.BulkRedeemed">

<ellipse fill="#edad56" stroke="#edad56" stroke-width="3" cx="299.77" cy="-590" rx="70.64" ry="18" style=""/>
<text text-anchor="middle" x="299.77" y="-585.8" font-family="Times,serif" font-size="14.00" style="">BulkRedeemed</text>
</g>
<!-- Marketplace.redeemBulk&#45;&gt;Marketplace.BulkRedeemed -->
<g id="edge21" class="edge" data-name="Marketplace.redeemBulk-&gt;Marketplace.BulkRedeemed">

<path fill="none" stroke="#1bc6a6" stroke-width="2" d="M137.54,-603.39C163.35,-601.24 194.45,-598.66 222.42,-596.34" style=""/>
<polygon fill="#1bc6a6" stroke="#1bc6a6" stroke-width="2" points="222.9,-599.81 232.57,-595.5 222.32,-592.84 222.9,-599.81" style=""/>
</g>
<!-- Marketplace.redeemBulk&#45;&gt;ReceiptUtil.verifyReceipt -->
<g id="edge12" class="edge" data-name="Marketplace.redeemBulk-&gt;ReceiptUtil.verifyReceipt">

<path fill="none" stroke="white" stroke-width="2" d="M92.59,-590.2C106.46,-566.28 130.77,-522.14 146,-482 168.48,-422.74 141.51,-392.77 182,-344 197.4,-325.45 220.48,-312.78 242.06,-304.32" style=""/>
<polygon fill="white" stroke="white" stroke-width="2" points="243.34,-307.58 251.52,-300.84 240.92,-301.01 243.34,-307.58" style=""/>
</g>
<!-- Marketplace.redeemBulk&#45;&gt;IGovernance.treasury -->
<g id="edge18" class="edge" data-name="Marketplace.redeemBulk-&gt;IGovernance.treasury">

<path fill="none" stroke="white" stroke-width="2" d="M93.7,-590.08C108.53,-566.39 133.66,-522.87 146,-482 165.91,-416.03 141.77,-229.94 182,-174 198.46,-151.11 226.94,-137.44 251.65,-129.45" style=""/>
<polygon fill="white" stroke="white" stroke-width="2" points="252.69,-132.79 261.26,-126.56 250.68,-126.09 252.69,-132.79" style=""/>
</g>
<!-- ReceiptUtil.BulkReceipt.hash -->
<g id="node39" class="node" pointer-events="visible" data-name="ReceiptUtil.BulkReceipt.hash">

<ellipse fill="#edad56" stroke="#edad56" stroke-width="3" cx="299.77" cy="-34" rx="28.98" ry="18" style=""/>
<text text-anchor="middle" x="299.77" y="-29.8" font-family="Times,serif" font-size="14.00" style="">hash</text>
</g>
<!-- Marketplace.redeemBulk&#45;&gt;ReceiptUtil.BulkReceipt.hash -->
<g id="edge14" class="edge" data-name="Marketplace.redeemBulk-&gt;ReceiptUtil.BulkReceipt.hash">

<path fill="none" stroke="white" stroke-width="2" d="M93.85,-590.13C108.86,-566.49 134.17,-523.02 146,-482 170.29,-397.73 131.69,-160.83 182,-89 200.52,-62.55 235.19,-48.45 261.96,-41.18" style=""/>
<polygon fill="white" stroke="white" stroke-width="2" points="262.93,-44.54 271.78,-38.71 261.23,-37.75 262.93,-44.54" style=""/>
</g>
<!-- Marketplace.pause -->
<g id="node4" class="node" pointer-events="visible" data-name="Marketplace.pause">

<ellipse fill="#ffbdb9" stroke="#ffbdb9" stroke-width="3" cx="81" cy="-455" rx="33.05" ry="18" style=""/>
<text text-anchor="middle" x="81" y="-450.8" font-family="Times,serif" font-size="14.00" style="">pause</text>
</g>
<!-- Marketplace._onlyManager -->
<g id="node20" class="node" pointer-events="visible" data-name="Marketplace._onlyManager">

<ellipse fill="#edad56" stroke="#edad56" stroke-width="3" cx="299.77" cy="-428" rx="67.2" ry="18" style=""/>
<text text-anchor="middle" x="299.77" y="-423.8" font-family="Times,serif" font-size="14.00" style="">_onlyManager</text>
</g>
<!-- Marketplace.pause&#45;&gt;Marketplace._onlyManager -->
<g id="edge22" class="edge" data-name="Marketplace.pause-&gt;Marketplace._onlyManager">

<path fill="none" stroke="#1bc6a6" stroke-width="2" d="M113.52,-451.07C143.49,-447.34 189.6,-441.6 228.33,-436.77" style=""/>
<polygon fill="#1bc6a6" stroke="#1bc6a6" stroke-width="2" points="229.02,-440.21 238.51,-435.51 228.16,-433.27 229.02,-440.21" style=""/>
</g>
<!-- Marketplace._pause -->
<g id="node21" class="node" pointer-events="visible" data-name="Marketplace._pause">

<ellipse fill="#edad56" stroke="#edad56" stroke-width="3" cx="299.77" cy="-482" rx="37.71" ry="18" style=""/>
<text text-anchor="middle" x="299.77" y="-477.8" font-family="Times,serif" font-size="14.00" style="">_pause</text>
</g>
<!-- Marketplace.pause&#45;&gt;Marketplace._pause -->
<g id="edge23" class="edge" data-name="Marketplace.pause-&gt;Marketplace._pause">

<path fill="none" stroke="#1bc6a6" stroke-width="2" d="M113.52,-458.93C150.19,-463.49 211.03,-471.07 252.93,-476.29" style=""/>
<polygon fill="#1bc6a6" stroke="#1bc6a6" stroke-width="2" points="252.52,-479.77 262.88,-477.53 253.39,-472.82 252.52,-479.77" style=""/>
</g>
<!-- Marketplace.unpause -->
<g id="node5" class="node" pointer-events="visible" data-name="Marketplace.unpause">

<ellipse fill="#ffbdb9" stroke="#ffbdb9" stroke-width="3" cx="81" cy="-387" rx="42.86" ry="18" style=""/>
<text text-anchor="middle" x="81" y="-382.8" font-family="Times,serif" font-size="14.00" style="">unpause</text>
</g>
<!-- Marketplace.unpause&#45;&gt;Marketplace._onlyManager -->
<g id="edge24" class="edge" data-name="Marketplace.unpause-&gt;Marketplace._onlyManager">

<path fill="none" stroke="#1bc6a6" stroke-width="2" d="M120.26,-394.24C151.7,-400.18 196.94,-408.74 234.01,-415.75" style=""/>
<polygon fill="#1bc6a6" stroke="#1bc6a6" stroke-width="2" points="233.75,-419.26 244.23,-417.68 235.05,-412.39 233.75,-419.26" style=""/>
</g>
<!-- Marketplace._unpause -->
<g id="node22" class="node" pointer-events="visible" data-name="Marketplace._unpause">

<ellipse fill="#edad56" stroke="#edad56" stroke-width="3" cx="299.77" cy="-374" rx="47.52" ry="18" style=""/>
<text text-anchor="middle" x="299.77" y="-369.8" font-family="Times,serif" font-size="14.00" style="">_unpause</text>
</g>
<!-- Marketplace.unpause&#45;&gt;Marketplace._unpause -->
<g id="edge25" class="edge" data-name="Marketplace.unpause-&gt;Marketplace._unpause">

<path fill="none" stroke="#1bc6a6" stroke-width="2" d="M123.28,-384.52C157.08,-382.5 205.23,-379.61 242.55,-377.37" style=""/>
<polygon fill="#1bc6a6" stroke="#1bc6a6" stroke-width="2" points="242.99,-380.85 252.76,-376.76 242.57,-373.86 242.99,-380.85" style=""/>
</g>
<!-- Marketplace._safeTransferFrom&#45;&gt;Marketplace.IERC1155Permit -->
<g id="edge27" class="edge" data-name="Marketplace._safeTransferFrom-&gt;Marketplace.IERC1155Permit">

<path fill="none" stroke="#1bc6a6" stroke-width="2" d="M381.42,-968.66C395.06,-964.31 407.9,-957.5 417.54,-947 494.06,-863.66 378.01,-779.23 453.54,-695 460.1,-687.69 468.34,-682.23 477.32,-678.18" style=""/>
<polygon fill="#1bc6a6" stroke="#1bc6a6" stroke-width="2" points="478.84,-681.34 486.89,-674.44 476.3,-674.82 478.84,-681.34" style=""/>
</g>
<!-- Marketplace._safeTransferFrom&#45;&gt;Marketplace.IERC1155 -->
<g id="edge28" class="edge" data-name="Marketplace._safeTransferFrom-&gt;Marketplace.IERC1155">

<path fill="none" stroke="#1bc6a6" stroke-width="2" d="M381.63,-968.85C395.25,-964.49 408.04,-957.62 417.54,-947 508.9,-844.99 363.39,-744.07 453.54,-641 464.73,-628.21 481.06,-621.08 497.55,-617.2" style=""/>
<polygon fill="#1bc6a6" stroke="#1bc6a6" stroke-width="2" points="498.65,-620.55 507.79,-615.18 497.3,-613.68 498.65,-620.55" style=""/>
</g>
<!-- Marketplace.INFTBase -->
<g id="node23" class="node" pointer-events="visible" data-name="Marketplace.INFTBase">

<ellipse fill="#edad56" stroke="#edad56" stroke-width="3" cx="560.05" cy="-776" rx="51.04" ry="18" style=""/>
<text text-anchor="middle" x="560.05" y="-771.8" font-family="Times,serif" font-size="14.00" style="">INFTBase</text>
</g>
<!-- Marketplace._safeTransferFrom&#45;&gt;Marketplace.INFTBase -->
<g id="edge26" class="edge" data-name="Marketplace._safeTransferFrom-&gt;Marketplace.INFTBase">

<path fill="none" stroke="#1bc6a6" stroke-width="2" d="M380.27,-967.93C394.1,-963.66 407.3,-957.06 417.54,-947 464.6,-900.77 407.03,-849.78 453.54,-803 465.58,-790.9 482.24,-783.97 498.78,-780.08" style=""/>
<polygon fill="#1bc6a6" stroke="#1bc6a6" stroke-width="2" points="499.89,-783.43 509.01,-778.03 498.52,-776.56 499.89,-783.43" style=""/>
</g>
<!-- Marketplace.IERC721Permit -->
<g id="node24" class="node" pointer-events="visible" data-name="Marketplace.IERC721Permit">

<ellipse fill="#edad56" stroke="#edad56" stroke-width="3" cx="560.05" cy="-830" rx="73.04" ry="18" style=""/>
<text text-anchor="middle" x="560.05" y="-825.8" font-family="Times,serif" font-size="14.00" style="">IERC721Permit</text>
</g>
<!-- Marketplace._safeTransferFrom&#45;&gt;Marketplace.IERC721Permit -->
<g id="edge29" class="edge" data-name="Marketplace._safeTransferFrom-&gt;Marketplace.IERC721Permit">

<path fill="none" stroke="#1bc6a6" stroke-width="2" d="M378.31,-967.06C392.55,-962.89 406.41,-956.55 417.54,-947 450.25,-918.96 421.17,-885.42 453.54,-857 462.01,-849.57 472.24,-844.14 482.97,-840.17" style=""/>
<polygon fill="#1bc6a6" stroke="#1bc6a6" stroke-width="2" points="484.07,-843.5 492.48,-837.06 481.89,-836.84 484.07,-843.5" style=""/>
</g>
<!-- Marketplace.IERC721 -->
<g id="node25" class="node" pointer-events="visible" data-name="Marketplace.IERC721">

<ellipse fill="#edad56" stroke="#edad56" stroke-width="3" cx="560.05" cy="-722" rx="47.54" ry="18" style=""/>
<text text-anchor="middle" x="560.05" y="-717.8" font-family="Times,serif" font-size="14.00" style="">IERC721</text>
</g>
<!-- Marketplace._safeTransferFrom&#45;&gt;Marketplace.IERC721 -->
<g id="edge30" class="edge" data-name="Marketplace._safeTransferFrom-&gt;Marketplace.IERC721">

<path fill="none" stroke="#1bc6a6" stroke-width="2" d="M380.81,-968.46C394.58,-964.14 407.64,-957.39 417.54,-947 479.27,-882.27 392.57,-814.44 453.54,-749 466.21,-735.4 484.71,-728.27 502.69,-724.63" style=""/>
<polygon fill="#1bc6a6" stroke="#1bc6a6" stroke-width="2" points="503.31,-728.08 512.58,-722.96 502.14,-721.18 503.31,-728.08" style=""/>
</g>
<!-- Marketplace._batchProcess&#45;&gt;Marketplace._pay -->
<g id="edge31" class="edge" data-name="Marketplace._batchProcess-&gt;Marketplace._pay">

<path fill="none" stroke="#1bc6a6" stroke-width="2" d="M362.64,-541.75C411.61,-546.3 478.5,-552.52 520.22,-556.39" style=""/>
<polygon fill="#1bc6a6" stroke="#1bc6a6" stroke-width="2" points="519.97,-559.88 530.25,-557.32 520.62,-552.91 519.97,-559.88" style=""/>
</g>
<!-- Marketplace.ISemiNFT -->
<g id="node26" class="node" pointer-events="visible" data-name="Marketplace.ISemiNFT">

<ellipse fill="#edad56" stroke="#edad56" stroke-width="3" cx="560.05" cy="-506" rx="52.2" ry="18" style=""/>
<text text-anchor="middle" x="560.05" y="-501.8" font-family="Times,serif" font-size="14.00" style="">ISemiNFT</text>
</g>
<!-- Marketplace._batchProcess&#45;&gt;Marketplace.ISemiNFT -->
<g id="edge32" class="edge" data-name="Marketplace._batchProcess-&gt;Marketplace.ISemiNFT">

<path fill="none" stroke="#1bc6a6" stroke-width="2" d="M361,-529C402.86,-524.14 458.39,-517.69 499.99,-512.86" style=""/>
<polygon fill="#1bc6a6" stroke="#1bc6a6" stroke-width="2" points="500.45,-516.33 509.98,-511.7 499.65,-509.38 500.45,-516.33" style=""/>
</g>
<!-- Marketplace._transact -->
<g id="node9" class="node" pointer-events="visible" data-name="Marketplace._transact">

<ellipse fill="#edad56" stroke="#edad56" stroke-width="3" cx="804.23" cy="-560" rx="45.78" ry="18" style=""/>
<text text-anchor="middle" x="804.23" y="-555.8" font-family="Times,serif" font-size="14.00" style="">_transact</text>
</g>
<!-- Marketplace._pay&#45;&gt;Marketplace._transact -->
<g id="edge34" class="edge" data-name="Marketplace._pay-&gt;Marketplace._transact">

<path fill="none" stroke="#1bc6a6" stroke-width="2" d="M586.51,-551.32C626.61,-545.78 705.15,-545.01 755.85,-549.03" style=""/>
<polygon fill="#1bc6a6" stroke="#1bc6a6" stroke-width="2" points="755.64,-552.52 765.91,-549.93 756.26,-545.55 755.64,-552.52" style=""/>
</g>
<!-- Marketplace._pay&#45;&gt;Marketplace._transact -->
<g id="edge36" class="edge" data-name="Marketplace._pay-&gt;Marketplace._transact">

<path fill="none" stroke="#1bc6a6" stroke-width="2" d="M590.26,-560C629.25,-560 699.08,-560 748.13,-560" style=""/>
<polygon fill="#1bc6a6" stroke="#1bc6a6" stroke-width="2" points="748.26,-563.5 758.26,-560 748.26,-556.5 748.26,-563.5" style=""/>
</g>
<!-- Marketplace._pay&#45;&gt;Marketplace._transact -->
<g id="edge37" class="edge" data-name="Marketplace._pay-&gt;Marketplace._transact">

<path fill="none" stroke="#1bc6a6" stroke-width="2" d="M586.51,-568.68C626.61,-574.22 705.15,-574.99 755.85,-570.97" style=""/>
<polygon fill="#1bc6a6" stroke="#1bc6a6" stroke-width="2" points="756.26,-574.45 765.91,-570.07 755.64,-567.48 756.26,-574.45" style=""/>
</g>
<!-- Marketplace._feeDenominator -->
<g id="node12" class="node" pointer-events="visible" data-name="Marketplace._feeDenominator">

<ellipse fill="#edad56" stroke="#edad56" stroke-width="3" cx="804.23" cy="-614" rx="78.71" ry="18" style=""/>
<text text-anchor="middle" x="804.23" y="-609.8" font-family="Times,serif" font-size="14.00" style="">_feeDenominator</text>
</g>
<!-- Marketplace._pay&#45;&gt;Marketplace._feeDenominator -->
<g id="edge35" class="edge" data-name="Marketplace._pay-&gt;Marketplace._feeDenominator">

<path fill="none" stroke="#1bc6a6" stroke-width="2" d="M588.36,-566.09C624.23,-574.09 688.41,-588.4 737.31,-599.3" style=""/>
<polygon fill="#1bc6a6" stroke="#1bc6a6" stroke-width="2" points="736.67,-602.74 747.19,-601.5 738.19,-595.91 736.67,-602.74" style=""/>
</g>
<!-- Marketplace.IERC2981Upgradeable -->
<g id="node27" class="node" pointer-events="visible" data-name="Marketplace.IERC2981Upgradeable">

<ellipse fill="#edad56" stroke="#edad56" stroke-width="3" cx="804.23" cy="-668" rx="101.86" ry="18" style=""/>
<text text-anchor="middle" x="804.23" y="-663.8" font-family="Times,serif" font-size="14.00" style="">IERC2981Upgradeable</text>
</g>
<!-- Marketplace._pay&#45;&gt;Marketplace.IERC2981Upgradeable -->
<g id="edge33" class="edge" data-name="Marketplace._pay-&gt;Marketplace.IERC2981Upgradeable">

<path fill="none" stroke="#1bc6a6" stroke-width="2" d="M589.81,-561.77C612.45,-564.41 643.88,-570.93 666.55,-587 690.08,-603.68 679.11,-624.18 702.55,-641 708.36,-645.17 714.78,-648.7 721.48,-651.68" style=""/>
<polygon fill="#1bc6a6" stroke="#1bc6a6" stroke-width="2" points="720.17,-654.93 730.75,-655.42 722.79,-648.43 720.17,-654.93" style=""/>
</g>
<!-- Marketplace.payable -->
<g id="node28" class="node" pointer-events="visible" data-name="Marketplace.payable">

<ellipse fill="#edad56" stroke="#edad56" stroke-width="3" cx="1034.49" cy="-479" rx="41.13" ry="18" style=""/>
<text text-anchor="middle" x="1034.49" y="-474.8" font-family="Times,serif" font-size="14.00" style="">payable</text>
</g>
<!-- Marketplace._transact&#45;&gt;Marketplace.payable -->
<g id="edge38" class="edge" data-name="Marketplace._transact-&gt;Marketplace.payable">

<path fill="none" stroke="#1bc6a6" stroke-width="2" d="M836.15,-546.87C863.66,-535.4 905.12,-518.66 941.91,-506 957.21,-500.73 974.16,-495.56 989.27,-491.17" style=""/>
<polygon fill="#1bc6a6" stroke="#1bc6a6" stroke-width="2" points="990.26,-494.53 998.9,-488.41 988.32,-487.8 990.26,-494.53" style=""/>
</g>
<!-- Marketplace.MP__PaymentFailed -->
<g id="node29" class="node" pointer-events="visible" data-name="Marketplace.MP__PaymentFailed">

<ellipse fill="#edad56" stroke="#edad56" stroke-width="3" cx="1034.49" cy="-533" rx="92.67" ry="18" style=""/>
<text text-anchor="middle" x="1034.49" y="-528.8" font-family="Times,serif" font-size="14.00" style="">MP__PaymentFailed</text>
</g>
<!-- Marketplace._transact&#45;&gt;Marketplace.MP__PaymentFailed -->
<g id="edge39" class="edge" data-name="Marketplace._transact-&gt;Marketplace.MP__PaymentFailed">

<path fill="none" stroke="#1bc6a6" stroke-width="2" d="M848.43,-554.89C875.61,-551.68 911.67,-547.41 944.74,-543.5" style=""/>
<polygon fill="#1bc6a6" stroke="#1bc6a6" stroke-width="2" points="945.37,-546.95 954.89,-542.3 944.55,-540 945.37,-546.95" style=""/>
</g>
<!-- Marketplace.NativePayment -->
<g id="node30" class="node" pointer-events="visible" data-name="Marketplace.NativePayment">

<ellipse fill="#edad56" stroke="#edad56" stroke-width="3" cx="1034.49" cy="-587" rx="70.64" ry="18" style=""/>
<text text-anchor="middle" x="1034.49" y="-582.8" font-family="Times,serif" font-size="14.00" style="">NativePayment</text>
</g>
<!-- Marketplace._transact&#45;&gt;Marketplace.NativePayment -->
<g id="edge40" class="edge" data-name="Marketplace._transact-&gt;Marketplace.NativePayment">

<path fill="none" stroke="#1bc6a6" stroke-width="2" d="M848.43,-565.11C879.86,-568.83 923.17,-573.95 959.99,-578.31" style=""/>
<polygon fill="#1bc6a6" stroke="#1bc6a6" stroke-width="2" points="959.85,-581.81 970.19,-579.51 960.67,-574.86 959.85,-581.81" style=""/>
</g>
<!-- Marketplace.IERC20Upgradeable -->
<g id="node31" class="node" pointer-events="visible" data-name="Marketplace.IERC20Upgradeable">

<ellipse fill="#edad56" stroke="#edad56" stroke-width="3" cx="1034.49" cy="-641" rx="92.04" ry="18" style=""/>
<text text-anchor="middle" x="1034.49" y="-636.8" font-family="Times,serif" font-size="14.00" style="">IERC20Upgradeable</text>
</g>
<!-- Marketplace._transact&#45;&gt;Marketplace.IERC20Upgradeable -->
<g id="edge41" class="edge" data-name="Marketplace._transact-&gt;Marketplace.IERC20Upgradeable">

<path fill="none" stroke="#1bc6a6" stroke-width="2" d="M846.67,-567.38C865.36,-571.63 887.36,-577.98 905.91,-587 923.89,-595.75 924.03,-605.03 941.91,-614 949.36,-617.74 957.42,-621.05 965.57,-623.96" style=""/>
<polygon fill="#1bc6a6" stroke="#1bc6a6" stroke-width="2" points="964.53,-627.31 975.13,-627.19 966.78,-620.68 964.53,-627.31" style=""/>
</g>
<!-- Marketplace._initialize&#45;&gt;Marketplace._initialize -->
<g id="edge42" class="edge" data-name="Marketplace._initialize-&gt;Marketplace._initialize">

<path fill="none" stroke="#1bc6a6" stroke-width="2" d="M265.39,-1041.11C250.2,-1052.27 261.66,-1064 299.77,-1064 328.95,-1064 342.51,-1057.12 340.44,-1048.89" style=""/>
<polygon fill="#1bc6a6" stroke="#1bc6a6" stroke-width="2" points="343.16,-1046.69 334.16,-1041.11 337.72,-1051.08 343.16,-1046.69" style=""/>
</g>
<!-- Marketplace.__Pausable_init -->
<g id="node32" class="node" pointer-events="visible" data-name="Marketplace.__Pausable_init">

<ellipse fill="#edad56" stroke="#edad56" stroke-width="3" cx="560.05" cy="-884" rx="72.95" ry="18" style=""/>
<text text-anchor="middle" x="560.05" y="-879.8" font-family="Times,serif" font-size="14.00" style="">__Pausable_init</text>
</g>
<!-- Marketplace._initialize&#45;&gt;Marketplace.__Pausable_init -->
<g id="edge43" class="edge" data-name="Marketplace._initialize-&gt;Marketplace.__Pausable_init">

<path fill="none" stroke="#1bc6a6" stroke-width="2" d="M349.45,-1026.89C372.42,-1024.03 398.83,-1017.05 417.54,-1001 450.25,-972.96 421.17,-939.42 453.54,-911 462.06,-903.52 472.37,-898.07 483.17,-894.1" style=""/>
<polygon fill="#1bc6a6" stroke="#1bc6a6" stroke-width="2" points="484.33,-897.4 492.76,-890.98 482.17,-890.74 484.33,-897.4" style=""/>
</g>
<!-- Marketplace.__ReentrancyGuard_init -->
<g id="node33" class="node" pointer-events="visible" data-name="Marketplace.__ReentrancyGuard_init">

<ellipse fill="#edad56" stroke="#edad56" stroke-width="3" cx="560.05" cy="-938" rx="106.51" ry="18" style=""/>
<text text-anchor="middle" x="560.05" y="-933.8" font-family="Times,serif" font-size="14.00" style="">__ReentrancyGuard_init</text>
</g>
<!-- Marketplace._initialize&#45;&gt;Marketplace.__ReentrancyGuard_init -->
<g id="edge44" class="edge" data-name="Marketplace._initialize-&gt;Marketplace.__ReentrancyGuard_init">

<path fill="none" stroke="#1bc6a6" stroke-width="2" d="M347.84,-1023.21C370.03,-1019.46 396.25,-1012.81 417.54,-1001 437.33,-990.03 433.89,-976.2 453.54,-965 460.81,-960.86 468.7,-957.35 476.8,-954.37" style=""/>
<polygon fill="#1bc6a6" stroke="#1bc6a6" stroke-width="2" points="478.04,-957.64 486.38,-951.1 475.79,-951.02 478.04,-957.64" style=""/>
</g>
<!-- Marketplace.__EIP712_init -->
<g id="node34" class="node" pointer-events="visible" data-name="Marketplace.__EIP712_init">

<ellipse fill="#edad56" stroke="#edad56" stroke-width="3" cx="560.05" cy="-992" rx="67.24" ry="18" style=""/>
<text text-anchor="middle" x="560.05" y="-987.8" font-family="Times,serif" font-size="14.00" style="">__EIP712_init</text>
</g>
<!-- Marketplace._initialize&#45;&gt;Marketplace.__EIP712_init -->
<g id="edge45" class="edge" data-name="Marketplace._initialize-&gt;Marketplace.__EIP712_init">

<path fill="none" stroke="#1bc6a6" stroke-width="2" d="M346.35,-1021.65C386.07,-1016.11 444.27,-1008 489.75,-1001.66" style=""/>
<polygon fill="#1bc6a6" stroke="#1bc6a6" stroke-width="2" points="490.41,-1005.1 499.84,-1000.25 489.45,-998.17 490.41,-1005.1" style=""/>
</g>
<!-- Marketplace.type -->
<g id="node35" class="node" pointer-events="visible" data-name="Marketplace.type">

<ellipse fill="#edad56" stroke="#edad56" stroke-width="3" cx="560.05" cy="-1046" rx="27.83" ry="18" style=""/>
<text text-anchor="middle" x="560.05" y="-1041.8" font-family="Times,serif" font-size="14.00" style="">type</text>
</g>
<!-- Marketplace._initialize&#45;&gt;Marketplace.type -->
<g id="edge46" class="edge" data-name="Marketplace._initialize-&gt;Marketplace.type">

<path fill="none" stroke="#1bc6a6" stroke-width="2" d="M348.75,-1031.34C398.96,-1034.84 476.7,-1040.26 522.26,-1043.44" style=""/>
<polygon fill="#1bc6a6" stroke="#1bc6a6" stroke-width="2" points="522.08,-1046.93 532.3,-1044.14 522.57,-1039.95 522.08,-1046.93" style=""/>
</g>
<!-- key -->
<g id="node40" class="node" pointer-events="visible" data-name="key">

<polygon fill="#edad56" stroke="transparent" stroke-width="3" points="146,-1201 16,-1201 16,-1113 146,-1113 146,-1201" style=""/>
<text text-anchor="start" x="65.64" y="-1182.4" font-family="Times,serif" font-size="14.00" style="">Internal Call</text>
<text text-anchor="start" x="61.75" y="-1162.4" font-family="Times,serif" font-size="14.00" style="">External Call</text>
<text text-anchor="start" x="39.2" y="-1142.4" font-family="Times,serif" font-size="14.00" style="">Defined Contract</text>
<text text-anchor="start" x="25.6" y="-1122.4" font-family="Times,serif" font-size="14.00" style="">Undefined Contract</text>
</g>
<!-- key2 -->
<g id="node41" class="node" pointer-events="visible" data-name="key2">

<polygon fill="#edad56" stroke="transparent" stroke-width="3" points="326.77,-1201 272.77,-1201 272.77,-1113 326.77,-1113 326.77,-1201" style=""/>
<text text-anchor="start" x="289.77" y="-1182.4" font-family="Times,serif" font-size="14.00" style="">   </text>
<text text-anchor="start" x="289.77" y="-1162.4" font-family="Times,serif" font-size="14.00" style="">   </text>
<polygon fill="#445773" stroke="transparent" points="287.77,-1137 287.77,-1157 312.77,-1157 312.77,-1137 287.77,-1137" style=""/>
<text text-anchor="start" x="289.77" y="-1142.4" font-family="Times,serif" font-size="14.00" style="">   </text>
<polygon fill="none" stroke="#e8726d" points="289.77,-1119 289.77,-1135 310.77,-1135 310.77,-1119 289.77,-1119" style=""/>
</g>
<!-- key&#45;&gt;key2 -->
<g id="edge47" class="edge" data-name="key-&gt;key2">

<path fill="none" stroke="#1bc6a6" stroke-width="2" d="M139,-1187C201.08,-1187 219.15,-1187 276.42,-1187" style=""/>
<polygon fill="#1bc6a6" stroke="#1bc6a6" stroke-width="2" points="276.77,-1190.5 286.77,-1187 276.77,-1183.5 276.77,-1190.5" style=""/>
</g>
<!-- key&#45;&gt;key2 -->
<g id="edge48" class="edge" data-name="key-&gt;key2">

<path fill="none" stroke="white" stroke-width="2" d="M139,-1167C201.08,-1167 219.15,-1167 276.42,-1167" style=""/>
<polygon fill="white" stroke="white" stroke-width="2" points="276.77,-1170.5 286.77,-1167 276.77,-1163.5 276.77,-1170.5" style=""/>
</g>
</g>
</svg>